<?xml version="1.0" encoding="UTF-8" standalone="no"?>
<svg
   xmlns:dc="http://purl.org/dc/elements/1.1/"
   xmlns:cc="http://creativecommons.org/ns#"
   xmlns:rdf="http://www.w3.org/1999/02/22-rdf-syntax-ns#"
   xmlns:svg="http://www.w3.org/2000/svg"
   xmlns="http://www.w3.org/2000/svg"
   id="svg44"
   version="1.1"
   viewBox="0 0 115.2 115.2"
   height="115.2pt"
   width="115.2pt">
  <metadata
     id="metadata48">
    <rdf:RDF>
      <cc:Work
         rdf:about="">
        <dc:format>image/svg+xml</dc:format>
        <dc:type
           rdf:resource="http://purl.org/dc/dcmitype/StillImage" />
        <dc:title></dc:title>
      </cc:Work>
    </rdf:RDF>
  </metadata>
  <defs
     id="defs30">
    <filter
       id="filter64"
       style="color-interpolation-filters:sRGB;">
      <feComposite
         id="feComposite50"
         result="composite1"
         k2="1"
         k1="0"
         operator="arithmetic"
         in2="SourceGraphic" />
      <feColorMatrix
         id="feColorMatrix52"
         result="colormatrix1"
         type="saturate"
         values="1"
         in="composite1" />
      <feFlood
         id="feFlood54"
         result="flood1"
         flood-color="rgb(0,136,170)"
         flood-opacity="1" />
      <feBlend
         id="feBlend56"
         result="blend1"
         mode="normal"
         in2="colormatrix1"
         in="flood1" />
      <feBlend
         id="feBlend58"
         result="blend2"
         mode="normal"
         in2="blend1" />
      <feColorMatrix
         id="feColorMatrix60"
         result="colormatrix2"
         type="saturate"
         values="1"
         in="blend2" />
      <feComposite
         id="feComposite62"
         result="composite2"
         k2="1"
         operator="in"
         in2="SourceGraphic"
         in="colormatrix2" />
    </filter>
    <filter
       id="filter80"
       style="color-interpolation-filters:sRGB;">
      <feComposite
         id="feComposite66"
         result="composite1"
         k2="1"
         k1="0"
         operator="arithmetic"
         in2="SourceGraphic" />
      <feColorMatrix
         id="feColorMatrix68"
         result="colormatrix1"
         type="saturate"
         values="1"
         in="composite1" />
      <feFlood
         id="feFlood70"
         result="flood1"
         flood-color="rgb(0,136,170)"
         flood-opacity="1" />
      <feBlend
         id="feBlend72"
         result="blend1"
         mode="normal"
         in2="colormatrix1"
         in="flood1" />
      <feBlend
         id="feBlend74"
         result="blend2"
         mode="normal"
         in2="blend1" />
      <feColorMatrix
         id="feColorMatrix76"
         result="colormatrix2"
         type="saturate"
         values="1"
         in="blend2" />
      <feComposite
         id="feComposite78"
         result="composite2"
         k2="1"
         operator="in"
         in2="SourceGraphic"
         in="colormatrix2" />
    </filter>
    <filter
       id="filter96"
       style="color-interpolation-filters:sRGB;">
      <feComposite
         id="feComposite82"
         result="composite1"
         k2="1"
         k1="0"
         operator="arithmetic"
         in2="SourceGraphic" />
      <feColorMatrix
         id="feColorMatrix84"
         result="colormatrix1"
         type="saturate"
         values="1"
         in="composite1" />
      <feFlood
         id="feFlood86"
         result="flood1"
         flood-color="rgb(0,136,170)"
         flood-opacity="1" />
      <feBlend
         id="feBlend88"
         result="blend1"
         mode="normal"
         in2="colormatrix1"
         in="flood1" />
      <feBlend
         id="feBlend90"
         result="blend2"
         mode="normal"
         in2="blend1" />
      <feColorMatrix
         id="feColorMatrix92"
         result="colormatrix2"
         type="saturate"
         values="1"
         in="blend2" />
      <feComposite
         id="feComposite94"
         result="composite2"
         k2="1"
         operator="in"
         in2="SourceGraphic"
         in="colormatrix2" />
    </filter>
    <filter
       id="filter112"
       style="color-interpolation-filters:sRGB;">
      <feComposite
         id="feComposite98"
         result="composite1"
         k2="1"
         k1="0"
         operator="arithmetic"
         in2="SourceGraphic" />
      <feColorMatrix
         id="feColorMatrix100"
         result="colormatrix1"
         type="saturate"
         values="1"
         in="composite1" />
      <feFlood
         id="feFlood102"
         result="flood1"
         flood-color="rgb(0,136,170)"
         flood-opacity="1" />
      <feBlend
         id="feBlend104"
         result="blend1"
         mode="normal"
         in2="colormatrix1"
         in="flood1" />
      <feBlend
         id="feBlend106"
         result="blend2"
         mode="normal"
         in2="blend1" />
      <feColorMatrix
         id="feColorMatrix108"
         result="colormatrix2"
         type="saturate"
         values="1"
         in="blend2" />
      <feComposite
         id="feComposite110"
         result="composite2"
         k2="1"
         operator="in"
         in2="SourceGraphic"
         in="colormatrix2" />
    </filter>
    <filter
       id="filter128"
       style="color-interpolation-filters:sRGB;">
      <feComposite
         id="feComposite114"
         result="composite1"
         k2="1"
         k1="0"
         operator="arithmetic"
         in2="SourceGraphic" />
      <feColorMatrix
         id="feColorMatrix116"
         result="colormatrix1"
         type="saturate"
         values="1"
         in="composite1" />
      <feFlood
         id="feFlood118"
         result="flood1"
         flood-color="rgb(0,136,170)"
         flood-opacity="1" />
      <feBlend
         id="feBlend120"
         result="blend1"
         mode="normal"
         in2="colormatrix1"
         in="flood1" />
      <feBlend
         id="feBlend122"
         result="blend2"
         mode="normal"
         in2="blend1" />
      <feColorMatrix
         id="feColorMatrix124"
         result="colormatrix2"
         type="saturate"
         values="1"
         in="blend2" />
      <feComposite
         id="feComposite126"
         result="composite2"
         k2="1"
         operator="in"
         in2="SourceGraphic"
         in="colormatrix2" />
    </filter>
    <filter
       id="filter144"
       style="color-interpolation-filters:sRGB;">
      <feComposite
         id="feComposite130"
         result="composite1"
         k2="1"
         k1="0"
         operator="arithmetic"
         in2="SourceGraphic" />
      <feColorMatrix
         id="feColorMatrix132"
         result="colormatrix1"
         type="saturate"
         values="1"
         in="composite1" />
      <feFlood
         id="feFlood134"
         result="flood1"
         flood-color="rgb(0,136,170)"
         flood-opacity="1" />
      <feBlend
         id="feBlend136"
         result="blend1"
         mode="normal"
         in2="colormatrix1"
         in="flood1" />
      <feBlend
         id="feBlend138"
         result="blend2"
         mode="normal"
         in2="blend1" />
      <feColorMatrix
         id="feColorMatrix140"
         result="colormatrix2"
         type="saturate"
         values="1"
         in="blend2" />
      <feComposite
         id="feComposite142"
         result="composite2"
         k2="1"
         operator="in"
         in2="SourceGraphic"
         in="colormatrix2" />
    </filter>
    <filter
       id="filter160"
       style="color-interpolation-filters:sRGB;">
      <feComposite
         id="feComposite146"
         result="composite1"
         k2="1"
         k1="0"
         operator="arithmetic"
         in2="SourceGraphic" />
      <feColorMatrix
         id="feColorMatrix148"
         result="colormatrix1"
         type="saturate"
         values="1"
         in="composite1" />
      <feFlood
         id="feFlood150"
         result="flood1"
         flood-color="rgb(0,136,170)"
         flood-opacity="1" />
      <feBlend
         id="feBlend152"
         result="blend1"
         mode="normal"
         in2="colormatrix1"
         in="flood1" />
      <feBlend
         id="feBlend154"
         result="blend2"
         mode="normal"
         in2="blend1" />
      <feColorMatrix
         id="feColorMatrix156"
         result="colormatrix2"
         type="saturate"
         values="1"
         in="blend2" />
      <feComposite
         id="feComposite158"
         result="composite2"
         k2="1"
         operator="in"
         in2="SourceGraphic"
         in="colormatrix2" />
    </filter>
    <filter
       id="filter176"
       style="color-interpolation-filters:sRGB;">
      <feComposite
         id="feComposite162"
         result="composite1"
         k2="1"
         k1="0"
         operator="arithmetic"
         in2="SourceGraphic" />
      <feColorMatrix
         id="feColorMatrix164"
         result="colormatrix1"
         type="saturate"
         values="1"
         in="composite1" />
      <feFlood
         id="feFlood166"
         result="flood1"
         flood-color="rgb(0,136,170)"
         flood-opacity="1" />
      <feBlend
         id="feBlend168"
         result="blend1"
         mode="normal"
         in2="colormatrix1"
         in="flood1" />
      <feBlend
         id="feBlend170"
         result="blend2"
         mode="normal"
         in2="blend1" />
      <feColorMatrix
         id="feColorMatrix172"
         result="colormatrix2"
         type="saturate"
         values="1"
         in="blend2" />
      <feComposite
         id="feComposite174"
         result="composite2"
         k2="1"
         operator="in"
         in2="SourceGraphic"
         in="colormatrix2" />
    </filter>
    <filter
       id="filter192"
       style="color-interpolation-filters:sRGB;">
      <feComposite
         id="feComposite178"
         result="composite1"
         k2="1"
         k1="0"
         operator="arithmetic"
         in2="SourceGraphic" />
      <feColorMatrix
         id="feColorMatrix180"
         result="colormatrix1"
         type="saturate"
         values="1"
         in="composite1" />
      <feFlood
         id="feFlood182"
         result="flood1"
         flood-color="rgb(0,136,170)"
         flood-opacity="1" />
      <feBlend
         id="feBlend184"
         result="blend1"
         mode="normal"
         in2="colormatrix1"
         in="flood1" />
      <feBlend
         id="feBlend186"
         result="blend2"
         mode="normal"
         in2="blend1" />
      <feColorMatrix
         id="feColorMatrix188"
         result="colormatrix2"
         type="saturate"
         values="1"
         in="blend2" />
      <feComposite
         id="feComposite190"
         result="composite2"
         k2="1"
         operator="in"
         in2="SourceGraphic"
         in="colormatrix2" />
    </filter>
    <filter
       id="filter208"
       style="color-interpolation-filters:sRGB;">
      <feComposite
         id="feComposite194"
         result="composite1"
         k2="1"
         k1="0"
         operator="arithmetic"
         in2="SourceGraphic" />
      <feColorMatrix
         id="feColorMatrix196"
         result="colormatrix1"
         type="saturate"
         values="1"
         in="composite1" />
      <feFlood
         id="feFlood198"
         result="flood1"
         flood-color="rgb(0,136,170)"
         flood-opacity="1" />
      <feBlend
         id="feBlend200"
         result="blend1"
         mode="normal"
         in2="colormatrix1"
         in="flood1" />
      <feBlend
         id="feBlend202"
         result="blend2"
         mode="normal"
         in2="blend1" />
      <feColorMatrix
         id="feColorMatrix204"
         result="colormatrix2"
         type="saturate"
         values="1"
         in="blend2" />
      <feComposite
         id="feComposite206"
         result="composite2"
         k2="1"
         operator="in"
         in2="SourceGraphic"
         in="colormatrix2" />
    </filter>
    <filter
       id="filter224"
       style="color-interpolation-filters:sRGB;">
      <feComposite
         id="feComposite210"
         result="composite1"
         k2="1"
         k1="0"
         operator="arithmetic"
         in2="SourceGraphic" />
      <feColorMatrix
         id="feColorMatrix212"
         result="colormatrix1"
         type="saturate"
         values="1"
         in="composite1" />
      <feFlood
         id="feFlood214"
         result="flood1"
         flood-color="rgb(0,136,170)"
         flood-opacity="1" />
      <feBlend
         id="feBlend216"
         result="blend1"
         mode="normal"
         in2="colormatrix1"
         in="flood1" />
      <feBlend
         id="feBlend218"
         result="blend2"
         mode="normal"
         in2="blend1" />
      <feColorMatrix
         id="feColorMatrix220"
         result="colormatrix2"
         type="saturate"
         values="1"
         in="blend2" />
      <feComposite
         id="feComposite222"
         result="composite2"
         k2="1"
         operator="in"
         in2="SourceGraphic"
         in="colormatrix2" />
    </filter>
  </defs>
  <path
     style="filter:url(#filter64)"
     d="M84.3841 28.8001L84.3381 27.4442L84.2011 26.1046L83.9761 24.7826L83.6651 23.4793L83.2691 22.1964L82.7911 20.9352L82.2331 19.697L81.5961 18.4832L80.8831 17.2953L80.0951 16.1346L79.2351 15.0023L78.3051 13.9001L77.3071 12.8293L76.2431 11.7912L75.1141 10.7871L73.9241 9.81852L72.6731 8.88685L71.3644 7.99347L69.9996 7.13971L68.5807 6.3271L67.1098 5.55672L65.5889 4.83022L64.0201 4.14892L62.4054 3.51413L60.7467 2.92727L59.0462 2.38978L57.3059 1.90295L55.5277 1.46822L53.7137 1.08701L51.866 0.760632L49.9866 0.490515L48.0774 0.277967L46.1405 0.124532L44.178 0.0314006L42.1918 0L40.2057 0.0314006L38.2431 0.124532L36.3063 0.277967L34.3971 0.490515L32.5176 0.760632L30.6699 1.08701L28.8559 1.46822L27.0778 1.90295L25.3374 2.38978L23.6369 2.92727L21.9783 3.51413L20.3636 4.14892L18.7947 4.83022L17.2739 5.55672L15.803 6.3271L14.3841 7.13971L13.0192 7.99347L11.7104 8.88685L10.4597 9.81852L9.2691 10.7871L8.1406 11.7912L7.0762 12.8293L6.0781 13.9001L5.1481 15.0023L4.2884 16.1346L3.501 17.2953L2.7878 18.4832L2.151 19.697L1.5924 20.9352L1.1143 22.1964L0.7186 23.4793L0.4072 24.7826L0.1823 26.1046L0.0459 27.4442L0 28.8001L0.0459 30.1558L0.1823 31.4954L0.4072 32.8174L0.7186 34.1207L1.1143 35.4036L1.5924 36.6648L2.151 37.903L2.7878 39.1168L3.501 40.3048L4.2884 41.4656L5.1481 42.5978L6.0781 43.6999L7.0762 44.7708L8.1406 45.809L9.2691 46.8129L10.4597 47.7815L11.7104 48.7132L13.0192 49.6065L14.3841 50.4603L15.803 51.273L17.2739 52.0433L18.7947 52.7698L20.3636 53.4512L21.9783 54.0859L23.6369 54.6727L25.3374 55.2102L27.0778 55.697L28.8559 56.1318L30.6699 56.513L32.5176 56.8394L34.3971 57.1095L36.3063 57.322L38.2431 57.4756L40.2057 57.5687L42.1918 57.6L44.178 57.5687L46.1405 57.4756L48.0774 57.322L49.9866 57.1095L51.866 56.8394L53.7137 56.513L55.5277 56.1318L57.3059 55.697L59.0462 55.2102L60.7467 54.6727L62.4054 54.0859L64.0201 53.4512L65.5889 52.7698L67.1098 52.0433L68.5807 51.273L69.9996 50.4603L71.3644 49.6065L72.6731 48.7132L73.9241 47.7815L75.1141 46.8129L76.2431 45.809L77.3071 44.7708L78.3051 43.6999L79.2351 42.5978L80.0951 41.4656L80.8831 40.3048L81.5961 39.1168L82.2331 37.903L82.7911 36.6648L83.2691 35.4036L83.6651 34.1207L83.9761 32.8174L84.2011 31.4954L84.3381 30.1558L84.3841 28.8001M71.6382 28.8001L71.5703 27.1415L71.3694 25.513L71.04 23.9181L70.5864 22.3603L70.013 20.8435L69.3242 19.371L68.5244 17.9466L67.6179 16.5738L66.6092 15.2563L65.5027 13.9975L64.3027 12.8013L63.0136 11.6712L61.6398 10.6107L60.1856 9.62357L58.6556 8.71319L57.054 7.88345L55.3852 7.13781L53.6537 6.47982L51.8638 5.91318L50.0198 5.44146L48.1263 5.06834L46.1875 4.79727L44.2079 4.63206L42.1918 4.57616L40.1757 4.63206L38.1961 4.79727L36.2573 5.06834L34.3638 5.44146L32.5199 5.91318L30.73 6.47982L28.9984 7.13781L27.3297 7.88345L25.7281 8.71319L24.198 9.62357L22.7439 10.6107L21.3701 11.6712L20.081 12.8013L18.881 13.9975L17.7744 15.2563L16.7657 16.5738L15.8593 17.9466L15.0595 19.371L14.3707 20.8435L13.7973 22.3603L13.3437 23.9181L13.0142 25.513L12.8134 27.1415L12.7454 28.8001L12.8134 30.4586L13.0142 32.087L13.3437 33.682L13.7973 35.2397L14.3707 36.7565L15.0595 38.229L15.8593 39.6535L16.7657 41.0262L17.7744 42.3438L18.881 43.6025L20.081 44.7987L21.3701 45.9288L22.7439 46.9893L24.198 47.9765L25.7281 48.8868L27.3297 49.7165L28.9984 50.4623L30.73 51.1202L32.5199 51.6868L34.3638 52.1585L36.2573 52.5317L38.1961 52.8027L40.1757 52.9679L42.1918 53.0238L44.2079 52.9679L46.1875 52.8027L48.1263 52.5317L50.0198 52.1585L51.8638 51.6868L53.6537 51.1202L55.3852 50.4623L57.054 49.7165L58.6556 48.8868L60.1856 47.9765L61.6398 46.9893L63.0136 45.9288L64.3027 44.7987L65.5027 43.6025L66.6092 42.3438L67.6179 41.0262L68.5244 39.6535L69.3242 38.229L70.013 36.7565L70.5864 35.2397L71.04 33.682L71.3694 32.087L71.5703 30.4586L71.6382 28.8001"
     stroke-linejoin="bevel"
     stroke-linecap="square"
     stroke-width="1.44"
     stroke="#1e74fd"
     fill-rule="evenodd"
     fill="#1e74fd"
     transform="matrix(1.00000002649095 0 0 1.00000007947286 15.561636777217 28.8000007629395)"
     id="shape0" />
  <path
     style="filter:url(#filter80)"
     d="M17.5791 16.872L5.47726e-7 0L0 16.8601L17.5791 16.872"
     stroke-linejoin="bevel"
     stroke-linecap="square"
     stroke-width="1.44"
     stroke-opacity="0"
     stroke="#000000"
     fill-rule="evenodd"
     fill="#1e74fd"
     transform="matrix(-1.00446430396869 0 0 0.93754429262571 21.2556310917733 41.7600011062622)"
     id="shape01" />
  <path
     style="filter:url(#filter96)"
     d="M0 21.6L0 0L21.6 0"
     stroke-linejoin="round"
     stroke-linecap="round"
     stroke-width="7.2"
     stroke="#1e74fd"
     fill="none"
     transform="matrix(1.00000002649095 0 0 1.00000007947286 7.17345759599999 7.19999752044666)"
     id="shape4" />
  <path
     style="filter:url(#filter112)"
     d="M0 0L0 21.6L21.6 21.6"
     stroke-linejoin="round"
     stroke-linecap="round"
     stroke-width="7.2"
     stroke="#1e74fd"
     fill="none"
     transform="matrix(1.00000002649095 0 0 1.00000007947286 7.17345759599999 86.4000038146975)"
     id="shape5" />
  <path
     style="filter:url(#filter128)"
     d="M0 21.6L21.6 21.6L21.6 0"
     stroke-linejoin="round"
     stroke-linecap="round"
     stroke-width="7.2"
     stroke="#1e74fd"
     fill="none"
     transform="matrix(1.00000002649095 0 0 1.00000007947286 86.3734596940835 86.4000038146975)"
     id="shape6" />
  <path
     style="filter:url(#filter144)"
     d="M0 0L21.6 0L21.6 21.6"
     stroke-linejoin="round"
     stroke-linecap="round"
     stroke-width="7.2"
     stroke="#1e74fd"
     fill="none"
     transform="matrix(1.00000002649095 0 0 1.00000007947286 86.3734596940835 7.19999752044666)"
     id="shape7" />
  <path
     style="filter:url(#filter160)"
     d="M17.5791 16.872L5.47726e-7 0L0 16.8601L17.5791 16.872"
     stroke-linejoin="bevel"
     stroke-linecap="square"
     stroke-width="1.44"
     stroke-opacity="0"
     stroke="#000000"
     fill-rule="evenodd"
     fill="#1e74fd"
     transform="matrix(-1.00446428498067 0 0 -0.93754426437238 21.2085865024002 73.406666572719)"
     id="shape011" />
  <path
     style="filter:url(#filter176)"
     d="M17.5791 16.872L5.47726e-7 0L0 16.8601L17.5791 16.872"
     stroke-linejoin="bevel"
     stroke-linecap="square"
     stroke-width="1.44"
     stroke-opacity="0"
     stroke="#000000"
     fill-rule="evenodd"
     fill="#1e74fd"
     transform="matrix(1.00446430593923 0 0 0.93754429453791 93.9204019275608 41.7661941944855)"
     id="shape012" />
  <path
     style="filter:url(#filter192)"
     d="M17.5791 16.872L5.47726e-7 0L0 16.8601L17.5791 16.872"
     stroke-linejoin="bevel"
     stroke-linecap="square"
     stroke-width="1.44"
     stroke-opacity="0"
     stroke="#000000"
     fill-rule="evenodd"
     fill="#1e74fd"
     transform="matrix(1.00446432445114 0 0 -0.937544284176195 94.0600803463614 73.3840632351271)"
     id="shape013" />
  <path
     style="filter:url(#filter208)"
     d="M43.2 21.6L43.135 19.912L42.9433 18.2595L42.6295 16.6473L42.1986 15.0803L41.6554 13.5632L41.0046 12.1009L40.251 10.6981L39.3994 9.3596L38.4547 8.0903L37.4217 6.8949L36.3051 5.7783L35.1097 4.7453L33.8404 3.8006L32.5019 2.949L31.0991 2.1954L29.6368 1.5446L28.1197 1.0014L26.5527 0.5705L24.9405 0.2567L23.288 0.065L21.6 0L19.912 0.065L18.2595 0.2567L16.6473 0.5705L15.0803 1.0014L13.5632 1.5446L12.1009 2.1954L10.6981 2.949L9.3596 3.8006L8.0903 4.7453L6.8949 5.7783L5.7783 6.8949L4.7453 8.0903L3.8006 9.3596L2.949 10.6981L2.1954 12.1009L1.5446 13.5632L1.0014 15.0803L0.5705 16.6473L0.2567 18.2595L0.065 19.912L0 21.6L0.065 23.288L0.2567 24.9405L0.5705 26.5527L1.0014 28.1197L1.5446 29.6368L2.1954 31.0991L2.949 32.5019L3.8006 33.8404L4.7453 35.1097L5.7783 36.3051L6.8949 37.4217L8.0903 38.4547L9.3596 39.3994L10.6981 40.251L12.1009 41.0046L13.5632 41.6554L15.0803 42.1986L16.6473 42.6295L18.2595 42.9433L19.912 43.135L21.6 43.2L23.288 43.135L24.9405 42.9433L26.5527 42.6295L28.1197 42.1986L29.6368 41.6554L31.0991 41.0046L32.5019 40.251L33.8404 39.3994L35.1097 38.4547L36.3051 37.4217L37.4217 36.3051L38.4547 35.1097L39.3994 33.8404L40.251 32.5019L41.0046 31.0991L41.6554 29.6368L42.1986 28.1197L42.6295 26.5527L42.9433 24.9405L43.135 23.288L43.2 21.6M21.6575 12.6518L21.4052 10.6813L20.6931 8.9107L19.5887 7.4106L18.1591 6.2516L16.4718 5.5044L14.5941 5.2396L12.7163 5.5044L11.029 6.2516L9.5995 7.4106L8.495 8.9107L7.783 10.6813L7.5307 12.6518L7.783 14.6222L8.495 16.3928L9.5995 17.8929L11.029 19.0519L12.7163 19.7991L14.5941 20.0639L16.4718 19.7991L18.1591 19.0519L19.5887 17.8929L20.6931 16.3928L21.4052 14.6222L21.6575 12.6518"
     stroke-linejoin="bevel"
     stroke-linecap="square"
     stroke-width="28.7999712"
     stroke-opacity="0"
     stroke="#000000"
     fill-rule="evenodd"
     fill="#1e74fd"
     transform="matrix(1.00000002649095 0 0 1.00000002649095 36.0000009536743 36.0000009536743)"
     id="path41" />
  <circle
     style="filter:url(#filter224)"
     stroke-linejoin="bevel"
     stroke-linecap="square"
     stroke-width="28.7999712"
     stroke-opacity="0"
     stroke="#000000"
     fill-rule="evenodd"
     fill="#1e74fd"
     cy="3.24"
     cx="3.24"
     r="3.24"
     transform="matrix(1.00000002649095 0 0 1.00000002649095 44.6362544284674 42.4325790451525)"
     id="shape1" />
</svg>
