<?xml version="1.0" encoding="UTF-8" standalone="no"?>
<svg
   xmlns:dc="http://purl.org/dc/elements/1.1/"
   xmlns:cc="http://creativecommons.org/ns#"
   xmlns:rdf="http://www.w3.org/1999/02/22-rdf-syntax-ns#"
   xmlns:svg="http://www.w3.org/2000/svg"
   xmlns="http://www.w3.org/2000/svg"
   xmlns:sodipodi="http://sodipodi.sourceforge.net/DTD/sodipodi-0.dtd"
   xmlns:inkscape="http://www.inkscape.org/namespaces/inkscape"
   viewBox="0 -256 1920 1920"
   id="svg2989"
   version="1.1"
   inkscape:version="0.48.4 r9939"
   width="100%"
   height="100%"
   sodipodi:docname="cloudflare-grey.svg">
  <metadata
     id="metadata2999">
    <rdf:RDF>
      <cc:Work
         rdf:about="">
        <dc:format>image/svg+xml</dc:format>
        <dc:type
           rdf:resource="http://purl.org/dc/dcmitype/StillImage" />
        <dc:title></dc:title>
        <cc:license
           rdf:resource="http://scripts.sil.org/OFL" />
      </cc:Work>
      <cc:License
         rdf:about="http://scripts.sil.org/OFL">
        <cc:permits
           rdf:resource="http://scripts.sil.org/pub/OFL/Reproduction" />
        <cc:permits
           rdf:resource="http://scripts.sil.org/pub/OFL/Distribution" />
        <cc:permits
           rdf:resource="http://scripts.sil.org/pub/OFL/Embedding" />
        <cc:permits
           rdf:resource="http://scripts.sil.org/pub/OFL/DerivativeWorks" />
        <cc:requires
           rdf:resource="http://scripts.sil.org/pub/OFL/Notice" />
        <cc:requires
           rdf:resource="http://scripts.sil.org/pub/OFL/Attribution" />
        <cc:requires
           rdf:resource="http://scripts.sil.org/pub/OFL/ShareAlike" />
        <cc:requires
           rdf:resource="http://scripts.sil.org/pub/OFL/DerivativeRenaming" />
        <cc:requires
           rdf:resource="http://scripts.sil.org/pub/OFL/BundlingWhenSelling" />
      </cc:License>
    </rdf:RDF>
  </metadata>
  <defs
     id="defs2997" />
  <sodipodi:namedview
     pagecolor="#ffffff"
     bordercolor="#666666"
     borderopacity="1"
     objecttolerance="10"
     gridtolerance="10"
     guidetolerance="10"
     inkscape:pageopacity="0"
     inkscape:pageshadow="2"
     inkscape:window-width="1551"
     inkscape:window-height="878"
     id="namedview2995"
     showgrid="false"
     inkscape:zoom="0.35833333"
     inkscape:cx="960"
     inkscape:cy="960"
     inkscape:window-x="49"
     inkscape:window-y="0"
     inkscape:window-maximized="1"
     inkscape:current-layer="svg2989"
     showguides="true"
     inkscape:guide-bbox="true">
    <sodipodi:guide
       orientation="1,0"
       position="691.56977,1638.2267"
       id="guide3752" />
    <sodipodi:guide
       orientation="0,1"
       position="475.45422,1047.9833"
       id="guide3754" />
  </sodipodi:namedview>
  <path
     style="fill:#000000;fill-opacity:1"
     inkscape:connector-curvature="0"
     id="path2993"
     d="m 0,990.205 q 0,159 112.5,271.5 112.5,112.5 271.5,112.5 h 1088 q 185,0 316.5,-131.5 131.5,-131.5 131.5,-316.5 0,-132 -71,-241.5 -71,-109.5 -187,-163.5 2,-28 2,-43 0,-212 -150,-362 -150,-149.999997 -362,-149.999997 -158.00002,0 -286.5,88.000001 Q 737,142.205 678,284.205 q -70,-62 -166,-62 -106,0 -181,75 -75,75 -75,181 0,75 41,138 -129,30 -212.999998,134.5 Q 0,855.205 0,990.205 z" />
  <g
     id="g3901"
     transform="translate(-23.203018,-30)">
    <path
       transform="translate(0,-256)"
       inkscape:connector-curvature="0"
       id="path3758"
       d="m 691.56977,902.0167 0,-510.88298"
       style="fill:none;stroke:#ffffff;stroke-width:40;stroke-linecap:round;stroke-linejoin:miter;stroke-miterlimit:4;stroke-opacity:1;stroke-dasharray:none" />
    <path
       inkscape:connector-curvature="0"
       id="path3758-3"
       d="m 691.39826,1157.3339 0,-510.88294"
       style="fill:none;stroke:#ffffff;stroke-width:40;stroke-linecap:round;stroke-linejoin:miter;stroke-miterlimit:4;stroke-opacity:1;stroke-dasharray:none" />
    <path
       inkscape:connector-curvature="0"
       id="path3758-5"
       d="m 689.46328,646.15278 -510.88298,0"
       style="fill:none;stroke:#ffffff;stroke-width:40;stroke-linecap:round;stroke-linejoin:miter;stroke-miterlimit:4;stroke-opacity:1;stroke-dasharray:none" />
    <path
       inkscape:connector-curvature="0"
       id="path3758-5-3"
       d="m 1203.847,646.31395 -510.88296,0"
       style="fill:none;stroke:#ffffff;stroke-width:40;stroke-linecap:round;stroke-linejoin:miter;stroke-miterlimit:4;stroke-opacity:1;stroke-dasharray:none" />
    <path
       sodipodi:open="true"
       sodipodi:end="3.1415927"
       sodipodi:start="1.5707963"
       transform="translate(-73.498961,-181.39926)"
       d="m 877.21656,827.61626 c -61.83101,0 -111.95495,-50.12393 -111.95495,-111.95494 0,0 0,-1e-5 0,-1e-5"
       sodipodi:ry="111.95494"
       sodipodi:rx="111.95494"
       sodipodi:cy="715.66132"
       sodipodi:cx="877.21655"
       id="path3845"
       style="fill:none;stroke:#ffffff;stroke-width:40;stroke-linecap:round;stroke-miterlimit:4;stroke-opacity:1;stroke-dasharray:none"
       sodipodi:type="arc" />
    <path
       sodipodi:open="true"
       sodipodi:end="3.1415927"
       sodipodi:start="1.5707963"
       transform="matrix(-1,0,0,1,1456.8026,-181.52326)"
       d="m 877.21656,827.61626 c -61.83101,0 -111.95495,-50.12393 -111.95495,-111.95494 0,0 0,-1e-5 0,-1e-5"
       sodipodi:ry="111.95494"
       sodipodi:rx="111.95494"
       sodipodi:cy="715.66132"
       sodipodi:cx="877.21655"
       id="path3845-5"
       style="fill:none;stroke:#ffffff;stroke-width:40;stroke-linecap:round;stroke-miterlimit:4;stroke-opacity:1;stroke-dasharray:none"
       sodipodi:type="arc" />
    <path
       sodipodi:open="true"
       sodipodi:end="3.1415927"
       sodipodi:start="1.5707963"
       transform="matrix(-1,0,0,-1,1456.4916,1473.8323)"
       d="m 877.21656,827.61626 c -61.83101,0 -111.95495,-50.12393 -111.95495,-111.95494 0,0 0,-1e-5 0,-1e-5"
       sodipodi:ry="111.95494"
       sodipodi:rx="111.95494"
       sodipodi:cy="715.66132"
       sodipodi:cx="877.21655"
       id="path3845-5-6"
       style="fill:none;stroke:#ffffff;stroke-width:40;stroke-linecap:round;stroke-miterlimit:4;stroke-opacity:1;stroke-dasharray:none"
       sodipodi:type="arc" />
    <path
       sodipodi:open="true"
       sodipodi:end="3.1415927"
       sodipodi:start="1.5707963"
       transform="matrix(0,1,-1,0,1518.9723,-118.89156)"
       d="m 877.21656,827.61626 c -61.83101,0 -111.95495,-50.12393 -111.95495,-111.95494 0,0 0,-1e-5 0,-1e-5"
       sodipodi:ry="111.95494"
       sodipodi:rx="111.95494"
       sodipodi:cy="715.66132"
       sodipodi:cx="877.21655"
       id="path3845-5-6-2"
       style="fill:none;stroke:#ffffff;stroke-width:40;stroke-linecap:round;stroke-miterlimit:4;stroke-opacity:1;stroke-dasharray:none"
       sodipodi:type="arc" />
  </g>
</svg>
